<?xml version="1.0" encoding="UTF-8" standalone="no"?>
<svg
   width="43.961899mm"
   height="43.970436mm"
   viewBox="0 0 43.961899 43.970436"
   version="1.1"
   id="svg4842"
   xml:space="preserve"
   inkscape:version="1.3.2 (091e20ef0f, 2023-11-25, custom)"
   sodipodi:docname="loongarchlinux-loongtexture.svg"
   xmlns:inkscape="http://www.inkscape.org/namespaces/inkscape"
   xmlns:sodipodi="http://sodipodi.sourceforge.net/DTD/sodipodi-0.dtd"
   xmlns:xlink="http://www.w3.org/1999/xlink"
   xmlns="http://www.w3.org/2000/svg"
   xmlns:svg="http://www.w3.org/2000/svg"><sodipodi:namedview
   id="namedview1"
   pagecolor="#ffffff"
   bordercolor="#000000"
   borderopacity="0.25"
   inkscape:showpageshadow="2"
   inkscape:pageopacity="0.0"
   inkscape:pagecheckerboard="0"
   inkscape:deskcolor="#d1d1d1"
   inkscape:document-units="mm"
   inkscape:zoom="0.96167059"
   inkscape:cx="423.74177"
   inkscape:cy="359.79056"
   inkscape:window-width="1536"
   inkscape:window-height="795"
   inkscape:window-x="0"
   inkscape:window-y="0"
   inkscape:window-maximized="1"
   inkscape:current-layer="layer1" />
  <defs
   id="defs4839">
    <linearGradient
   x1="112.49854"
   y1="6.1372099"
   x2="112.49853"
   y2="129.3468"
   id="path1082_2_"
   gradientUnits="userSpaceOnUse"
   gradientTransform="translate(287,-83)">
      <stop
   id="stop193"
   style="stop-color:#ffffff;stop-opacity:0"
   offset="0" />
      <stop
   id="stop195"
   style="stop-color:#ffffff;stop-opacity:0.27450982"
   offset="1" />
    </linearGradient>
    <linearGradient
   x1="541.33502"
   y1="104.50665"
   x2="606.91248"
   y2="303.14029"
   id="linearGradient2544"
   xlink:href="#path1082_2_"
   gradientUnits="userSpaceOnUse"
   gradientTransform="matrix(-0.3937741,0,0,0.393752,357.51969,122.00151)" />
    <linearGradient
   id="linearGradient3388">
      <stop
   id="stop3390"
   style="stop-color:#000000;stop-opacity:0"
   offset="0" />
      <stop
   id="stop3392"
   style="stop-color:#000000;stop-opacity:0.37113401"
   offset="1" />
    </linearGradient>
    <linearGradient
   x1="490.72305"
   y1="237.72447"
   x2="490.72305"
   y2="183.9644"
   id="linearGradient4416"
   xlink:href="#linearGradient3388"
   gradientUnits="userSpaceOnUse"
   gradientTransform="matrix(0.749107,0,0,0.749107,-35.459862,91.44108)" />
  </defs>
  <g
   inkscape:label="Layer 1"
   inkscape:groupmode="layer"
   id="layer1"
   transform="translate(-937.51911,15.090119)">
    
    
  <path
   d="m 959.49606,-15.090119 c -1.95708,4.79826 -3.13751,7.93688 -5.31647,12.59251 1.33598,1.41614 2.97583,3.06529 5.63893,4.92787 -2.8631,-1.17815 -4.81608,-2.36099 -6.27558,-3.58842 -2.78866,5.81896 -7.15768,14.10781 -16.02383,30.038477 6.9685,-4.02303 12.37035,-6.503277 17.40462,-7.449667 -0.21617,-0.92976 -0.33907,-1.93548 -0.33073,-2.98484 l 0.008,-0.22324 c 0.11058,-4.46453 2.43302,-7.89775 5.18418,-7.66465 2.75116,0.23311 4.88961,4.04348 4.77904,8.50801 -0.0208,0.84009 -0.11556,1.64824 -0.28112,2.39779 4.97961,0.9741 10.3237,3.447987 17.19791,7.416597 -1.35546,-2.4955 -2.56532,-4.745007 -3.7207,-6.887427 -1.81991,-1.41055 -3.71816,-3.24639 -7.59023,-5.23379 2.66144,0.69155 4.567,1.48942 6.05234,2.38125 -11.74704,-21.87095 -12.6983,-24.77715 -16.72663,-34.23047 z"
   id="path2518-6-2-2-0"
   style="fill:#1793d1;fill-opacity:1;fill-rule:evenodd;stroke:none;stroke-width:0.264583"
   inkscape:export-filename="loongarchlinux_loongtxture_bule_red_16x16.png"
   inkscape:export-xdpi="9.2443686"
   inkscape:export-ydpi="9.2443686" /><path
   id="path606-7-6"
   style="display:inline;mix-blend-mode:normal;fill:#e60013;fill-opacity:1;stroke:none;stroke-width:0.0378005"
   d="m 955.87147,-4.547611 c 0.30397,1.801904 0.97195,1.910728 1.62987,2.819983 -0.57067,0.157413 -1.24536,0.385534 -1.81746,0.748275 0.74482,0.721251 1.59028,1.483227 2.63498,2.298051 0.15542,-0.06957 0.32994,-0.09617 0.51677,-0.06925 0.0516,-0.1767 -0.0797,-0.484763 -0.11266,-0.661975 0.3017,0.876228 0.57453,1.140843 1.12035,1.767851 l -0.24701,-0.08578 c 0.076,0.05399 0.14449,0.10636 0.2222,0.160714 -0.28387,-0.116813 -0.55216,-0.23394 -0.81855,-0.350883 0.46841,1.947825 1.79085,1.252925 2.50682,1.693953 0.68923,0.488602 0.57723,1.628614 0.57723,2.454631 l 0.67903,-0.126608 c -0.0587,0.07048 -0.14448,0.259749 -0.20671,0.392741 0.21187,0.0677 0.55461,-0.005 0.64802,-0.07131 0.30288,-0.214624 0.47396,-0.792466 0.47491,-1.205095 l -0.3731,0.126091 V 4.96499 l -0.30593,0.08423 -0.40566,-1.178222 -0.0982,-0.926042 -0.31058,-0.505396 c 0.25199,0.137498 0.34959,0.39957 0.54932,0.607715 0.11744,0.122166 0.27445,0.166744 0.40101,0.272852 0.24016,0.201401 0.41963,0.515216 0.52762,0.845426 0.45647,1.52206 0.2022,2.877367 1.67896,2.904216 -0.85581,-0.522829 -1.1446,-1.608976 -0.96996,-2.904216 0.0222,-0.189243 0.0235,-0.726226 0.092,-0.84646 0.49516,-0.05411 1.17449,0.886446 1.1989,0.908472 0.0597,0.01551 0.21427,-0.03816 0.32349,-0.146244 l -0.20361,0.757576 c 0.26536,-0.02597 0.46513,-0.167021 0.71314,-0.230994 0.0984,-0.02527 0.11469,0.06416 0.25942,0.135393 0.33221,-0.441552 0.45049,-1.421094 0.22789,-1.743563 -0.44464,-0.318983 -0.99268,-0.484986 -1.36994,-0.834058 -0.65689,-0.620816 -0.93434,-1.647191 -1.73116,-2.069124 -0.42449,-0.224737 -0.85172,-0.1217 -1.29037,-0.182418 0.0817,-0.05302 0.27274,-0.0781 0.42789,-0.211873 -0.55416,-0.991013 -2.38381,-1.695938 -3.38119,-1.86862 -1.77321,-0.05457 -2.69409,-1.781409 -3.76773,-2.38125 z m -1.04542,4.361491 c -0.15855,0.226754 -0.2805,0.481871 -0.34623,0.773596 0.1691,-0.01482 0.33791,-0.02986 0.50695,-0.04444 -0.85096,0.303987 -1.50061,1.825 -1.29398,2.901632 0.20138,-0.548 0.49156,-1.031071 0.78703,-1.383895 -0.58896,1.156217 -0.85016,2.50742 -0.61081,3.788399 l 0.54312,-0.46302 c -0.0566,0.443133 0.41249,2.648874 0.49919,2.669604 0.19566,-0.596601 0.49912,-0.758915 0.75654,-1.027844 -0.0507,0.54761 0.15282,2.667523 0.63356,2.891813 0.20175,-0.800731 0.72374,-1.355555 1.30173,-1.502751 -0.13048,0.509332 -0.3979,2.232365 -0.005,2.492355 1.88758,-1.239678 5.98456,0.695648 6.89415,1.8557 0.63023,0.732658 0.94539,2.694443 -0.062,4.104143 0.1025,0.704869 0.15258,1.44008 0.13384,2.196765 -0.0179,0.72343 -0.10127,1.415256 -0.22686,2.074292 1.75746,-0.561336 4.02434,-2.880175 4.2907,-4.622457 l 0.44545,0.70435 c 0.17636,-1.051851 0.23103,-2.572398 0.094,-3.323312 l 0.7953,0.331763 c -0.50067,-1.451186 -1.47316,-2.584749 -2.04794,-3.708818 l 0.89865,-0.47594 c -3.37218,-2.237497 -5.47744,-2.934 -7.67963,-3.547587 -3.54995,-1.58777 -3.91305,-3.991005 -3.17655,-4.896342 -1.22894,-0.590749 -2.2558,-1.18528 -3.13108,-1.788004 z m 8.9762,1.085722 -0.16485,0.208772 c -0.025,-0.145119 0.0857,-0.213193 0.16485,-0.208772 z m 0.15761,0.0987 c 0.12051,0.05303 -0.13757,0.224541 -0.14469,0.285254 l 0.0475,0.05943 c 0.12706,-0.09895 0.22736,-0.255659 0.25838,-0.172599 -0.0916,0.233428 -0.24246,0.348515 -0.33589,0.176217 -0.0649,-0.11959 -0.0911,-0.201881 0.17466,-0.348299 z m 0.28681,0.297139 c -0.007,0.06614 0.0103,0.248535 -0.18087,0.251664 z m 2.01228,1.775602 c 0.30876,0.217797 0.51658,0.238035 0.47284,0.56224 z m -13.79193,10.393681 0.26562,1.30638 c -2.44764,-0.957297 -5.15319,0.677548 -6.88537,1.759066 2.07972,-0.601847 4.92093,-1.277911 6.81509,-0.03307 l -0.98702,0.20929 c 0.86183,0.155796 1.86613,0.559617 2.95124,1.054199 0.0434,-0.722686 0.14261,-1.415511 0.29456,-2.065507 -1.19405,-0.74031 -2.11963,-1.518773 -2.45412,-2.230355 z" /><g
   inkscape:label="Layer 1"
   id="layer1-3"
   transform="translate(202.90667,-16.855041)"
   inkscape:export-filename="loongarchlinux_loongtxture_red.png"
   inkscape:export-xdpi="96"
   inkscape:export-ydpi="96">
    <path
   d="m 817.41482,3.16613 c -1.95708,4.79826 -3.13751,7.93688 -5.31647,12.59251 1.33598,1.41614 2.97583,3.06529 5.63893,4.92787 -2.8631,-1.17815 -4.81608,-2.36099 -6.27558,-3.58842 -2.78866,5.81896 -7.15768,14.10781 -16.02383,30.03848 6.9685,-4.02303 12.37035,-6.50328 17.40462,-7.44967 -0.21617,-0.92976 -0.33907,-1.93548 -0.33073,-2.98484 l 0.008,-0.22324 c 0.11058,-4.46453 2.43302,-7.89775 5.18418,-7.66465 2.75116,0.23311 4.88961,4.04348 4.77904,8.50801 -0.0208,0.84009 -0.11556,1.64824 -0.28112,2.39779 4.97961,0.9741 10.3237,3.44799 17.19791,7.4166 -1.35546,-2.4955 -2.56532,-4.74501 -3.7207,-6.88743 -1.81991,-1.41055 -3.71816,-3.24639 -7.59023,-5.23379 2.66144,0.69155 4.567,1.48942 6.05234,2.38125 C 822.39414,15.52565 821.44288,12.61945 817.41455,3.16613 Z"
   id="path2518-6"
   style="display:inline;mix-blend-mode:normal;fill:#ee1c25;fill-opacity:1;fill-rule:evenodd;stroke:none;stroke-width:0.264583" />
    <path
   id="path606-7"
   style="display:inline;mix-blend-mode:normal;fill:#f78b8f;fill-opacity:1;stroke:none;stroke-width:0.0378005"
   d="m 813.79024,13.708639 c 0.30397,1.801904 0.97195,1.910728 1.62987,2.819983 -0.57067,0.157413 -1.24536,0.385534 -1.81746,0.748275 0.74482,0.721251 1.59028,1.483227 2.63498,2.298051 0.15542,-0.06957 0.32994,-0.09617 0.51677,-0.06925 0.0516,-0.1767 -0.0797,-0.484763 -0.11266,-0.661975 0.3017,0.876228 0.57453,1.140843 1.12035,1.767851 l -0.24701,-0.08578 c 0.076,0.05399 0.14449,0.10636 0.2222,0.160714 -0.28387,-0.116813 -0.55216,-0.23394 -0.81855,-0.350883 0.46841,1.947825 1.79085,1.252925 2.50682,1.693953 0.68923,0.488602 0.57723,1.628614 0.57723,2.454631 l 0.67903,-0.126608 c -0.0587,0.07048 -0.14448,0.259749 -0.20671,0.392741 0.21187,0.0677 0.55461,-0.005 0.64802,-0.07131 0.30288,-0.214624 0.47396,-0.792466 0.47491,-1.205095 l -0.3731,0.126091 V 23.22124 l -0.30593,0.08423 -0.40566,-1.178222 -0.0982,-0.926042 -0.31058,-0.505396 c 0.25199,0.137498 0.34959,0.39957 0.54932,0.607715 0.11744,0.122166 0.27445,0.166744 0.40101,0.272852 0.24016,0.201401 0.41963,0.515216 0.52762,0.845426 0.45647,1.52206 0.2022,2.877367 1.67896,2.904216 -0.85581,-0.522829 -1.1446,-1.608976 -0.96996,-2.904216 0.0222,-0.189243 0.0235,-0.726226 0.092,-0.84646 0.49516,-0.05411 1.17449,0.886446 1.1989,0.908472 0.0597,0.01551 0.21427,-0.03816 0.32349,-0.146244 l -0.20361,0.757576 c 0.26536,-0.02597 0.46513,-0.167021 0.71314,-0.230994 0.0984,-0.02527 0.11469,0.06416 0.25942,0.135393 0.33221,-0.441552 0.45049,-1.421094 0.22789,-1.743563 -0.44464,-0.318983 -0.99268,-0.484986 -1.36994,-0.834058 -0.65689,-0.620816 -0.93434,-1.647191 -1.73116,-2.069124 -0.42449,-0.224737 -0.85172,-0.1217 -1.29037,-0.182418 0.0817,-0.05302 0.27274,-0.0781 0.42789,-0.211873 -0.55416,-0.991013 -2.38381,-1.695938 -3.38119,-1.86862 -1.77321,-0.05457 -2.69409,-1.781409 -3.76773,-2.38125 z m -1.04542,4.361491 c -0.15855,0.226754 -0.2805,0.481871 -0.34623,0.773596 0.1691,-0.01482 0.33791,-0.02986 0.50695,-0.04444 -0.85096,0.303987 -1.50061,1.825 -1.29398,2.901632 0.20138,-0.548 0.49156,-1.031071 0.78703,-1.383895 -0.58896,1.156217 -0.85016,2.50742 -0.61081,3.788399 l 0.54312,-0.46302 c -0.0566,0.443133 0.41249,2.648874 0.49919,2.669604 0.19566,-0.596601 0.49912,-0.758915 0.75654,-1.027844 -0.0507,0.54761 0.15282,2.667523 0.63356,2.891813 0.20175,-0.800731 0.72374,-1.355555 1.30173,-1.502751 -0.13048,0.509332 -0.3979,2.232365 -0.005,2.492355 1.88758,-1.239678 5.98456,0.695648 6.89415,1.8557 0.63023,0.732658 0.94539,2.694443 -0.062,4.104143 0.1025,0.704869 0.15258,1.44008 0.13384,2.196765 -0.0179,0.72343 -0.10127,1.415256 -0.22686,2.074292 1.75746,-0.561336 4.02434,-2.880175 4.2907,-4.622457 l 0.44545,0.70435 c 0.17636,-1.051851 0.23103,-2.572398 0.094,-3.323312 l 0.7953,0.331763 c -0.50067,-1.451186 -1.47316,-2.584749 -2.04794,-3.708818 l 0.89865,-0.47594 c -3.37218,-2.237497 -5.47744,-2.934 -7.67963,-3.547587 -3.54995,-1.58777 -3.91305,-3.991005 -3.17655,-4.896342 -1.22894,-0.590749 -2.2558,-1.18528 -3.13108,-1.788004 z m 8.9762,1.085722 -0.16485,0.208772 c -0.025,-0.145119 0.0857,-0.213193 0.16485,-0.208772 z m 0.15761,0.0987 c 0.12051,0.05303 -0.13757,0.224541 -0.14469,0.285254 l 0.0475,0.05943 c 0.12706,-0.09895 0.22736,-0.255659 0.25838,-0.172599 -0.0916,0.233428 -0.24246,0.348515 -0.33589,0.176217 -0.0649,-0.11959 -0.0911,-0.201881 0.17466,-0.348299 z m 0.28681,0.297139 c -0.007,0.06614 0.0103,0.248535 -0.18087,0.251664 z m 2.01228,1.775602 c 0.30876,0.217797 0.51658,0.238035 0.47284,0.56224 z m -13.79193,10.393681 0.26562,1.30638 c -2.44764,-0.957297 -5.15319,0.677548 -6.88537,1.759066 2.07972,-0.601847 4.92093,-1.277911 6.81509,-0.03307 l -0.98702,0.20929 c 0.86183,0.155796 1.86613,0.559617 2.95124,1.054199 0.0434,-0.722686 0.14261,-1.415511 0.29456,-2.065507 -1.19405,-0.74031 -2.11963,-1.518773 -2.45412,-2.230355 z" />
  </g><g
   inkscape:label="Layer 1"
   id="layer1-1"
   transform="translate(140.48618,48.419793)"><path
     d="m 817.41482,3.16613 c -1.95708,4.79826 -3.13751,7.93688 -5.31647,12.59251 1.33598,1.41614 2.97583,3.06529 5.63893,4.92787 -2.8631,-1.17815 -4.81608,-2.36099 -6.27558,-3.58842 -2.78866,5.81896 -7.15768,14.10781 -16.02383,30.03848 6.9685,-4.02303 12.37035,-6.50328 17.40462,-7.44967 -0.21617,-0.92976 -0.33907,-1.93548 -0.33073,-2.98484 l 0.008,-0.22324 c 0.11058,-4.46453 2.43302,-7.89775 5.18418,-7.66465 2.75116,0.23311 4.88961,4.04348 4.77904,8.50801 -0.0208,0.84009 -0.11556,1.64824 -0.28112,2.39779 4.97961,0.9741 10.3237,3.44799 17.19791,7.4166 -1.35546,-2.4955 -2.56532,-4.74501 -3.7207,-6.88743 -1.81991,-1.41055 -3.71816,-3.24639 -7.59023,-5.23379 2.66144,0.69155 4.567,1.48942 6.05234,2.38125 C 822.39414,15.52565 821.44288,12.61945 817.41455,3.16613 Z"
     id="path2518-6-2"
     style="display:inline;mix-blend-mode:normal;fill:#ee1c25;fill-opacity:1;fill-rule:evenodd;stroke:none;stroke-width:0.264583" /><path
     style="display:inline;mix-blend-mode:normal;fill:#f78b8f;fill-opacity:1;stroke:none;stroke-width:0.0378005"
     d="m 813.79049,13.708603 c 0.30397,1.801906 0.97149,1.910921 1.62941,2.820177 -1.14368,0.315471 -2.70522,0.912699 -3.02121,2.315076 0.1691,-0.01482 0.33806,-0.03024 0.5071,-0.04482 -0.85096,0.303987 -1.50081,1.825335 -1.29418,2.901968 0.20138,-0.548001 0.49161,-1.031081 0.78708,-1.383905 -0.58896,1.156218 -0.85037,2.507323 -0.61102,3.788304 l 0.54314,-0.463015 c -0.0566,0.443134 0.41249,2.648843 0.49919,2.669573 0.19566,-0.596602 0.4994,-0.759049 0.75682,-1.027978 -0.0507,0.547611 0.15284,2.66793 0.63358,2.89222 0.20175,-0.800732 0.72336,-1.355979 1.30135,-1.503175 -0.13048,0.509332 -0.39773,2.23271 -0.005,2.4927 1.88758,-1.239679 5.98449,0.695722 6.89408,1.855775 0.86813,1.009227 1.15182,4.355303 -1.81916,5.369883 0.10312,0.275855 0.40626,0.730905 0.60851,0.774374 -2.59874,-0.196152 -9.74247,-3.164125 -10.81458,-5.44495 l 0.26606,1.306777 c -2.44764,-0.957298 -5.1532,0.677155 -6.88538,1.758674 2.07972,-0.601848 4.9208,-1.278009 6.81496,-0.03317 l -0.98701,0.20948 c 3.1233,0.56461 8.00701,4.269072 12.51891,4.480589 1.77468,-0.477006 4.16,-2.87992 4.43355,-4.669232 l 0.44523,0.704391 c 0.17636,-1.051852 0.23128,-2.57229 0.0943,-3.323205 l 0.79517,0.331897 c -0.50067,-1.451187 -1.47339,-2.584949 -2.04817,-3.709019 l 0.89872,-0.476007 c -3.37219,-2.2375 -5.47737,-2.933791 -7.67956,-3.547378 -4.59102,-2.053405 -3.85318,-5.473203 -2.29805,-5.249071 0.0516,-0.1767 -0.0794,-0.484519 -0.11233,-0.661731 0.3017,0.876229 0.5744,1.140865 1.12022,1.767873 l -0.84864,-0.294643 c 0.46412,1.972757 1.79361,1.26994 2.51204,1.712481 0.68923,0.488602 0.57706,1.628629 0.57706,2.454646 l 0.67894,-0.126312 c -0.0587,0.07048 -0.14414,0.259684 -0.20637,0.392676 0.21187,0.0677 0.55422,-0.005 0.64763,-0.07135 0.30288,-0.214624 0.47437,-0.792594 0.47532,-1.205223 l -0.37344,0.126258 v -0.37883 l -0.30551,0.08419 -0.40592,-1.178578 -0.0984,-0.926032 -0.31042,-0.505106 c 0.25199,0.137498 0.34959,0.399752 0.54932,0.607897 0.11744,0.122166 0.27457,0.166397 0.40113,0.272505 0.24016,0.201401 0.41981,0.515168 0.5278,0.845379 0.45647,1.522061 0.202,2.877513 1.67877,2.904362 -0.85582,-0.522829 -1.14474,-1.609121 -0.9701,-2.904362 0.0222,-0.189243 0.0236,-0.726283 0.0921,-0.846517 0.49516,-0.05411 1.17457,0.886663 1.19898,0.908689 0.0597,0.01551 0.21435,-0.03828 0.32357,-0.146359 l -0.20369,0.757664 c 0.26536,-0.02597 0.46487,-0.167032 0.71288,-0.231005 0.0984,-0.02527 0.11471,0.0642 0.25944,0.135433 0.33222,-0.441552 0.45072,-1.421262 0.22812,-1.743731 -0.44464,-0.318983 -0.9929,-0.484606 -1.37016,-0.833678 -0.65689,-0.620817 -0.9344,-1.647319 -1.73123,-2.069253 -0.42449,-0.224737 -0.85135,-0.121829 -1.29,-0.182547 0.0817,-0.05302 0.27235,-0.07827 0.4275,-0.212039 -0.55416,-0.991014 -2.38339,-1.695798 -3.38077,-1.86848 -1.77321,-0.05457 -2.69442,-1.781389 -3.76806,-2.381231 m 7.7659,5.656159 c -0.025,-0.14512 0.0859,-0.213333 0.16502,-0.208912 m 0.0603,0.443435 c 0.12706,-0.09895 0.22741,-0.255457 0.25843,-0.172397 -0.0916,0.233428 -0.24227,0.348191 -0.3357,0.175893 -0.0649,-0.11959 -0.0914,-0.201867 0.17438,-0.348285 0.12051,0.05303 -0.1376,0.224668 -0.14472,0.285381 m 0.43155,0.01198 c -0.007,0.06614 0.0106,0.248387 -0.18059,0.251516 m 2.19302,1.523794 c 0.30876,0.217797 0.51646,0.238242 0.47272,0.562447 z"
     id="path606-7-7"
     sodipodi:nodetypes="cccccccccccccccccccccccccccccccccccccccccccccccccccccccccccccccccccsccccccc" /><path
     d="m 817.41482,3.16613 c -1.95708,4.7982603 -3.13751,7.936881 -5.31647,12.592511 1.33598,1.41614 2.97583,3.06529 5.63893,4.92787 -2.8631,-1.17815 -4.81608,-2.36099 -6.27558,-3.58842 -2.78866,5.81896 -7.15768,14.10781 -16.02383,30.03848 6.9685,-4.02303 12.37035,-6.50328 17.40462,-7.44967 -0.21617,-0.92976 -0.33907,-1.93548 -0.33073,-2.98484 l 0.008,-0.22324 c 0.11058,-4.46453 2.43302,-7.89775 5.18418,-7.66465 2.75116,0.23311 4.88961,4.04348 4.77904,8.50801 -0.0208,0.84009 -0.11556,1.64824 -0.28112,2.39779 4.97961,0.9741 10.3237,3.44799 17.19791,7.4166 -1.35546,-2.4955 -2.56532,-4.74501 -3.7207,-6.88743 -1.81991,-1.41055 -3.71816,-3.24639 -7.59023,-5.23379 2.66144,0.69155 4.567,1.48942 6.05234,2.38125 -11.74704,-21.87095 -12.6983,-24.77715 -16.72663,-34.230471 z"
     id="path2518-6-6"
     style="display:none;mix-blend-mode:darken;fill:#ee1c25;fill-opacity:1;fill-rule:evenodd;stroke:none;stroke-width:0.264583" /></g><path
   d="m 1048.6984,132.48025 c -1.9571,4.79826 -3.1375,7.93688 -5.3165,12.59251 1.336,1.41614 2.9758,3.06529 5.6389,4.92787 -2.8631,-1.17815 -4.8161,-2.36099 -6.2755,-3.58842 -2.7887,5.81896 -7.1577,14.10781 -16.0239,30.03848 6.9685,-4.02303 12.3704,-6.50328 17.4046,-7.44967 -0.2161,-0.92976 -0.339,-1.93548 -0.3307,-2.98484 l 0.01,-0.22324 c 0.1106,-4.46453 2.433,-7.89775 5.1842,-7.66465 2.7512,0.23311 4.8896,4.04348 4.779,8.50801 -0.021,0.84009 -0.1155,1.64824 -0.2811,2.39779 4.9796,0.9741 10.3237,3.44799 17.1979,7.4166 -1.3554,-2.4955 -2.5653,-4.74501 -3.7207,-6.88743 -1.8199,-1.41055 -3.7181,-3.24639 -7.5902,-5.23379 2.6614,0.69155 4.567,1.48942 6.0523,2.38125 -11.747,-21.87095 -12.6983,-24.77715 -16.7266,-34.23047 z"
   id="path2518-6-6-0"
   style="display:none;mix-blend-mode:darken;fill:#ee1c25;fill-opacity:1;fill-rule:evenodd;stroke:none;stroke-width:0.264583" /><path
   d="m 1013.6798,51.585923 c -1.9571,4.79826 -3.1375,7.93688 -5.3165,12.59251 1.336,1.41614 2.9758,3.06529 5.6389,4.92787 -2.8631,-1.17815 -4.8161,-2.36099 -6.2755,-3.58842 -2.7887,5.81896 -7.1577,14.10781 -16.02386,30.03848 6.9685,-4.02303 12.37036,-6.50328 17.40456,-7.44967 -0.2161,-0.92976 -0.339,-1.93548 -0.3307,-2.98484 l 0.01,-0.22324 c 0.1106,-4.46453 2.433,-7.89775 5.1842,-7.66465 2.7512,0.23311 4.8896,4.04348 4.779,8.50801 -0.021,0.84009 -0.1155,1.64824 -0.2811,2.39779 4.9796,0.9741 10.3237,3.44799 17.1979,7.4166 -1.3554,-2.4955 -2.5653,-4.74501 -3.7207,-6.88743 -1.8199,-1.41055 -3.7181,-3.24639 -7.5902,-5.23379 2.6614,0.69155 4.567,1.48942 6.0523,2.38125 -11.747,-21.87095 -12.6983,-24.77715 -16.7266,-34.23047 z"
   id="path2518-6-2-3-7"
   style="display:inline;mix-blend-mode:normal;fill:#1793d1;fill-opacity:1;fill-rule:evenodd;stroke:none;stroke-width:0.264583"
   inkscape:export-filename="loong_float.png"
   inkscape:export-xdpi="9.2443686"
   inkscape:export-ydpi="9.2443686" /><path
   style="display:inline;mix-blend-mode:normal;fill:#e60013;fill-opacity:1;stroke:none;stroke-width:0.0378005"
   d="m 1010.0554,62.128393 c 0.304,1.80191 0.9715,1.91092 1.6295,2.82018 -1.1437,0.31547 -2.7053,0.9127 -3.0213,2.31508 0.1691,-0.0148 0.3381,-0.0302 0.5071,-0.0448 -0.8509,0.30398 -1.5008,1.82533 -1.2941,2.90196 0.2013,-0.548 0.4916,-1.03108 0.787,-1.3839 -0.5889,1.15622 -0.8503,2.50732 -0.611,3.7883 l 0.5432,-0.46301 c -0.057,0.44313 0.4125,2.64884 0.4992,2.66957 0.1956,-0.5966 0.4994,-0.75905 0.7568,-1.02798 -0.051,0.54761 0.1528,2.66793 0.6335,2.89222 0.2018,-0.80073 0.7234,-1.35598 1.3014,-1.50317 -0.1305,0.50933 -0.3977,2.23271 0,2.4927 1.8876,-1.23968 5.9845,0.69572 6.8941,1.85577 0.8681,1.00923 1.1518,4.35531 -1.8192,5.36989 0.1031,0.27585 0.9544,0.36517 1.1566,0.40864 -1.9674,0.954309 -9.7415,0.56985 -11.407,-3.7207 0.1067,0.44494 0.2073,1.56463 0.2078,1.53949 -2.4476,-0.9573 -4.2826,0.71683 -6.0148,1.79835 2.0797,-0.60185 3.8238,-1.25805 5.718,-0.0132 l -1.1144,0.27176 c 3.3669,0.246622 5.9652,4.621082 12.9749,2.76744 1.7747,-0.47701 4.16,-2.87992 4.4335,-4.66923 l 0.4453,0.70439 c 0.1763,-1.05185 0.2313,-2.57229 0.094,-3.32321 l 0.7951,0.3319 c -0.5006,-1.45119 -1.4733,-2.58495 -2.0481,-3.70902 l 0.8987,-0.47601 c -3.3722,-2.2375 -5.4774,-2.93379 -7.6796,-3.54737 -4.591,-2.05341 -3.8532,-5.47321 -2.298,-5.24907 0.052,-0.1767 -0.079,-0.48452 -0.1123,-0.66174 0.3017,0.87623 0.5744,1.14087 1.1202,1.76788 l -0.8487,-0.29465 c 0.4641,1.97276 1.7936,1.26994 2.5121,1.71249 0.6892,0.4886 0.577,1.62862 0.577,2.45464 l 0.679,-0.12631 c -0.059,0.0705 -0.1442,0.25968 -0.2064,0.39268 0.2119,0.0677 0.5542,-0.005 0.6476,-0.0713 0.3029,-0.21463 0.4744,-0.7926 0.4753,-1.20523 l -0.3734,0.12626 v -0.37883 l -0.3055,0.0842 -0.4059,-1.17858 -0.098,-0.92603 -0.3104,-0.50511 c 0.2519,0.1375 0.3495,0.39976 0.5493,0.6079 0.1174,0.12217 0.2745,0.1664 0.4011,0.27251 0.2402,0.2014 0.4198,0.51517 0.5278,0.84538 0.4565,1.52206 0.202,2.87751 1.6788,2.90436 -0.8558,-0.52283 -1.1448,-1.60912 -0.9701,-2.90436 0.022,-0.18925 0.024,-0.72629 0.092,-0.84652 0.4951,-0.0541 1.1745,0.88666 1.199,0.90869 0.06,0.0155 0.2143,-0.0383 0.3235,-0.14636 l -0.2037,0.75766 c 0.2654,-0.026 0.4649,-0.16703 0.7129,-0.231 0.098,-0.0253 0.1147,0.0642 0.2595,0.13543 0.3322,-0.44155 0.4507,-1.42126 0.2281,-1.74373 -0.4447,-0.31898 -0.9929,-0.48461 -1.3702,-0.83368 -0.6569,-0.62081 -0.9344,-1.64732 -1.7312,-2.06925 -0.4245,-0.22474 -0.8514,-0.12183 -1.29,-0.18255 0.082,-0.053 0.2723,-0.0783 0.4275,-0.21204 -0.5542,-0.99101 -2.3834,-1.6958 -3.3808,-1.86848 -1.7732,-0.0546 -2.6944,-1.78139 -3.768,-2.38123 m 7.7659,5.65616 c -0.025,-0.14512 0.086,-0.21333 0.165,-0.20891 m 0.06,0.44343 c 0.127,-0.099 0.2274,-0.25545 0.2584,-0.17239 -0.092,0.23343 -0.2423,0.34819 -0.3357,0.17589 -0.065,-0.11959 -0.091,-0.20187 0.1744,-0.34828 0.1205,0.053 -0.1376,0.22466 -0.1447,0.28538 m 0.4315,0.012 c -0.01,0.0661 0.011,0.24838 -0.1806,0.25151 m 2.193,1.5238 c 0.3088,0.21779 0.5165,0.23824 0.4728,0.56244 z"
   id="path606-7-7-6-9"
   sodipodi:nodetypes="cccccccccccccccccccccccccccccccccccccccccccccccccccccccccccccccccccsccccccc" /><path
   style="fill:#e60013;fill-opacity:1;stroke:none;stroke-width:0.0192355"
   d="m 1067.6216,37.591709 c 0.1722,0.82345 0.5505,0.87326 0.9233,1.28878 -0.6481,0.14417 -1.5329,0.41709 -1.712,1.05795 0.096,-0.007 0.1916,-0.0138 0.2874,-0.0205 -0.4823,0.13892 -0.8505,0.83415 -0.7334,1.32616 0.1141,-0.25043 0.2786,-0.47119 0.446,-0.63242 -0.3337,0.52837 -0.4818,1.1458 -0.3462,1.73119 l 0.3077,-0.21159 c -0.032,0.20251 0.2338,1.21048 0.2829,1.21996 0.1109,-0.27264 0.283,-0.34688 0.4289,-0.46977 -0.029,0.25025 0.087,1.2192 0.359,1.3217 0.1143,-0.36593 0.4099,-0.61967 0.7374,-0.68693 -0.074,0.23275 -0.2254,1.02031 -0,1.13912 0.5427,-0.79968 2.0347,-0.42172 2.6766,-0.13545 1.9497,1.07349 1.4389,2.74181 -0.4039,3.01654 0.058,0.12607 0.3756,0.13368 0.4902,0.15354 -1.4815,0.13975 -1.9408,-0.65107 -2.9014,-1.09249 l 0.1045,0.38556 c -0.8131,-0.95215 -2.6623,-1.4135 -3.387,-0.56226 1.2629,-0.0453 2.4082,0.82291 3.2316,1.53884 l -0.6925,-0.15389 c 0.9977,1.19978 3.2259,1.47729 4.4434,1.00002 0.7794,-0.36888 1.5697,-1.01506 1.9235,-1.7502 l 0.1924,0.30777 c 0.3176,-0.318 0.193,-1.11875 0.1154,-1.4619 l 0.2116,0.15388 c -10e-5,-0.6839 -0.4353,-1.20404 -0.7502,-1.76966 l 0.7502,0.34624 c -0.721,-1.43815 -2.7531,-1.71192 -4.001,-1.99232 -2.6015,-0.93837 -2.1834,-2.50117 -1.3022,-2.39874 0.029,-0.0808 -0.045,-0.22142 -0.064,-0.3024 0.171,0.40042 0.3255,0.52135 0.6348,0.80789 l -0.4809,-0.13465 c 0.263,0.90152 1.0163,0.58034 1.4234,0.78258 0.3906,0.22328 0.327,0.74425 0.327,1.12173 l 0.3848,-0.0577 c -0.033,0.0322 -0.082,0.11867 -0.117,0.17945 0.1201,0.0309 0.314,-0.002 0.367,-0.0326 0.1716,-0.0981 0.2688,-0.36221 0.2693,-0.55077 l -0.2116,0.0577 v -0.17312 l -0.1731,0.0385 -0.23,-0.53859 -0.056,-0.42319 -0.1759,-0.23082 c 0.1428,0.0628 0.198,0.18268 0.3113,0.2778 0.066,0.0558 0.1555,0.076 0.2272,0.12453 0.1361,0.092 0.2379,0.23542 0.2991,0.38632 0.2587,0.69556 0.1145,1.31498 0.9513,1.32725 -0.485,-0.23892 -0.6487,-0.73534 -0.5497,-1.32725 0.013,-0.0865 0.013,-0.3319 0.052,-0.38684 0.2806,-0.0247 0.6655,0.40519 0.6794,0.41525 0.034,0.007 0.1215,-0.0175 0.1833,-0.0669 l -0.1154,0.34624 c 0.1504,-0.0119 0.2634,-0.0763 0.404,-0.10556 0.056,-0.0115 0.065,0.0293 0.147,0.0619 0.1882,-0.20178 0.2554,-0.6495 0.1292,-0.79686 -0.2519,-0.14577 -0.5626,-0.22146 -0.7764,-0.38098 -0.3722,-0.2837 -0.5294,-0.7528 -0.981,-0.94561 -0.2405,-0.10271 -0.4824,-0.0557 -0.7309,-0.0834 0.046,-0.0242 0.1543,-0.0358 0.2422,-0.0969 -0.314,-0.45288 -1.3505,-0.77496 -1.9157,-0.85387 -1.0048,-0.0249 -1.5268,-0.81407 -2.1352,-1.08819 m 4.4006,2.58478 c -0.014,-0.0663 0.049,-0.0975 0.094,-0.0955 m 0.034,0.20264 c 0.072,-0.0452 0.1288,-0.11674 0.1464,-0.0788 -0.052,0.10668 -0.1373,0.15912 -0.1902,0.0804 -0.037,-0.0547 -0.052,-0.0923 0.099,-0.15916 0.068,0.0242 -0.078,0.10267 -0.082,0.13042 m 0.2445,0.006 c -0,0.0302 0.01,0.11351 -0.1023,0.11494 m 1.2427,0.69635 c 0.1749,0.0995 0.2926,0.10887 0.2678,0.25703 z"
   id="path606-7-9"
   sodipodi:nodetypes="cccccccccccccccccccccccccccccccccccccccccccccccccccccccccccccccccccsccccccc" /><path
   style="display:inline;mix-blend-mode:normal;fill:#e60013;fill-opacity:1;stroke:none;stroke-width:0.0378005"
   d="m 1102.3453,28.566129 c 0.304,1.80191 0.9715,1.91092 1.6295,2.82018 -1.1437,0.31547 -2.7053,0.9127 -3.0213,2.31508 0.1691,-0.0148 0.3381,-0.0302 0.5071,-0.0448 -0.8509,0.30398 -1.5008,1.82533 -1.2941,2.90196 0.2013,-0.548 0.4916,-1.03108 0.787,-1.3839 -0.5889,1.15622 -0.8503,2.50732 -0.611,3.7883 l 0.5432,-0.46301 c -0.057,0.44313 0.4125,2.64884 0.4992,2.66957 0.1956,-0.5966 0.4994,-0.75905 0.7568,-1.02798 -0.051,0.54761 0.1528,2.66793 0.6335,2.89222 0.2018,-0.80073 0.7234,-1.35598 1.3014,-1.50317 -0.1305,0.50933 -0.3977,2.23271 0,2.4927 1.8876,-1.23968 5.9845,0.69572 6.8941,1.85577 0.8681,1.00923 1.1518,4.35531 -1.8192,5.36989 0.1031,0.27585 0.9544,0.36517 1.1566,0.40864 -1.9674,0.954309 -9.7415,0.56985 -11.407,-3.7207 0.1067,0.44494 0.2073,1.56463 0.2078,1.53949 -2.4476,-0.9573 -4.2826,0.71683 -6.0148,1.79835 2.0797,-0.60185 3.8238,-1.25805 5.718,-0.0132 l -1.1144,0.27176 c 3.3669,0.246622 5.9652,4.621082 12.9749,2.76744 1.7747,-0.47701 4.16,-2.87992 4.4335,-4.66923 l 0.4453,0.70439 c 0.1763,-1.05185 0.2313,-2.57229 0.094,-3.32321 l 0.7951,0.3319 c -0.5006,-1.45119 -1.4733,-2.58495 -2.0481,-3.70902 l 0.8987,-0.47601 c -3.3722,-2.2375 -5.4774,-2.93379 -7.6796,-3.54737 -4.591,-2.05341 -3.8532,-5.47321 -2.298,-5.24907 0.052,-0.1767 -0.079,-0.48452 -0.1123,-0.66174 0.3017,0.87623 0.5744,1.14087 1.1202,1.76788 l -0.8487,-0.29465 c 0.4641,1.97276 1.7936,1.26994 2.5121,1.71249 0.6892,0.4886 0.577,1.62862 0.577,2.45464 l 0.679,-0.12631 c -0.059,0.0705 -0.1442,0.25968 -0.2064,0.39268 0.2119,0.0677 0.5542,-0.005 0.6476,-0.0713 0.3029,-0.21463 0.4744,-0.7926 0.4753,-1.20523 l -0.3734,0.12626 v -0.37883 l -0.3055,0.0842 -0.4059,-1.17858 -0.098,-0.92603 -0.3104,-0.50511 c 0.2519,0.1375 0.3495,0.39976 0.5493,0.6079 0.1174,0.12217 0.2745,0.1664 0.4011,0.27251 0.2402,0.2014 0.4198,0.51517 0.5278,0.84538 0.4565,1.52206 0.202,2.87751 1.6788,2.90436 -0.8558,-0.52283 -1.1448,-1.60912 -0.9701,-2.90436 0.022,-0.18925 0.024,-0.72629 0.092,-0.84652 0.4951,-0.0541 1.1745,0.88666 1.199,0.90869 0.06,0.0155 0.2143,-0.0383 0.3235,-0.14636 l -0.2037,0.75766 c 0.2654,-0.026 0.4649,-0.16703 0.7129,-0.231 0.098,-0.0253 0.1147,0.0642 0.2595,0.13543 0.3322,-0.44155 0.4507,-1.42126 0.2281,-1.74373 -0.4447,-0.31898 -0.9929,-0.48461 -1.3702,-0.83368 -0.6569,-0.62081 -0.9344,-1.64732 -1.7312,-2.06925 -0.4245,-0.22474 -0.8514,-0.12183 -1.29,-0.18255 0.082,-0.053 0.2723,-0.0783 0.4275,-0.21204 -0.5542,-0.99101 -2.3834,-1.6958 -3.3808,-1.86848 -1.7732,-0.0546 -2.6944,-1.78139 -3.768,-2.38123 m 7.7659,5.65616 c -0.025,-0.14512 0.086,-0.21333 0.165,-0.20891 m 0.06,0.44343 c 0.127,-0.099 0.2274,-0.25545 0.2584,-0.17239 -0.092,0.23343 -0.2423,0.34819 -0.3357,0.17589 -0.065,-0.11959 -0.091,-0.20187 0.1744,-0.34828 0.1205,0.053 -0.1376,0.22466 -0.1447,0.28538 m 0.4315,0.012 c -0.01,0.0661 0.011,0.24838 -0.1806,0.25151 m 2.193,1.5238 c 0.3088,0.21779 0.5165,0.23824 0.4728,0.56244 z"
   id="path606-7-7-6-9-1"
   sodipodi:nodetypes="cccccccccccccccccccccccccccccccccccccccccccccccccccccccccccccccccccsccccccc" /></g>
</svg>
